<svg width="25.000000" height="25.000000" viewBox="0 0 25 25" fill="none" xmlns="http://www.w3.org/2000/svg" xmlns:xlink="http://www.w3.org/1999/xlink">
	<desc>
			Created with Pixso.
	</desc>
	<defs>
		<clipPath id="clip8_6">
			<rect width="25.000000" height="25.000000" fill="white" fill-opacity="0"/>
		</clipPath>
	</defs>
	<g clip-path="url(#clip8_6)">
		<path d="M7.8125 16.0781L6.25 17.6406L6.25 14.8438L5.46875 14.0625L3.125 14.0625L3.125 3.125L20.3125 3.125L20.3125 9.375L21.875 9.375L21.875 2.34375L21.0938 1.5625L2.34375 1.5625L1.5625 2.34375L1.5625 14.8438L2.34375 15.625L4.6875 15.625L4.6875 19.5312L6.01562 20.0781L7.8125 18.2969L7.8125 16.0781ZM16.0781 20.3125L18.9844 23.2031L20.3125 22.6562L20.3125 20.3125L22.6562 20.3125L23.4375 19.5312L23.4375 11.7188L22.6562 10.9375L10.1562 10.9375L9.375 11.7188L9.375 19.5312L10.1562 20.3125L16.0781 20.3125ZM16.4062 18.75L10.9375 18.75L10.9375 12.5L21.875 12.5L21.875 18.75L19.5312 18.75L18.75 19.5312L18.75 20.7656L16.9531 18.9844L16.4062 18.75Z" clip-rule="evenodd" fill="#FFFFFF" fill-opacity="1.000000" fill-rule="evenodd"/>
	</g>
</svg>
