<svg width="24.000000" height="24.000000" viewBox="0 0 24 24" fill="none" xmlns="http://www.w3.org/2000/svg" xmlns:xlink="http://www.w3.org/1999/xlink">
	<desc>
			Created with Pixso.
	</desc>
	<defs>
		<clipPath id="clip4_85">
			<rect id="album" width="24.000000" height="24.000000" fill="white" fill-opacity="0"/>
		</clipPath>
	</defs>
	<g clip-path="url(#clip4_85)">
		<path id="Icon" d="M16.8 4C17.9201 4 18.4802 4 18.908 4.21799C19.2843 4.40973 19.5903 4.7157 19.782 5.09201C20 5.51984 20 6.0799 20 7.20001L20 16.8C20 17.9201 20 18.4802 19.782 18.908C19.5903 19.2843 19.2843 19.5903 18.908 19.782C18.4802 20 17.9201 20 16.8 20L7.20001 20C6.0799 20 5.51984 20 5.09204 19.782C4.7157 19.5903 4.40973 19.2843 4.21796 18.908C4 18.4802 4 17.9201 4 16.8L4 7.20001C4 6.0799 4 5.51984 4.21796 5.09201C4.40973 4.7157 4.7157 4.40973 5.09204 4.21799C5.51984 4 6.0799 4 7.20001 4L16.8 4ZM12 17C9.23859 17 7 14.7614 7 12C7 9.23859 9.23859 7 12 7C14.7614 7 17 9.23859 17 12C17 14.7614 14.7614 17 12 17ZM12 12L12.01 12M12 12.5C11.7239 12.5 11.5 12.2762 11.5 12C11.5 11.7238 11.7239 11.5 12 11.5C12.2761 11.5 12.5 11.7238 12.5 12C12.5 12.2762 12.2761 12.5 12 12.5Z" stroke="#FFFFFF" stroke-opacity="1.000000" stroke-width="2.000000" stroke-linejoin="round" stroke-linecap="round"/>
	</g>
</svg>
