<svg width="24.000000" height="24.000000" viewBox="0 0 24 24" fill="none" xmlns="http://www.w3.org/2000/svg" xmlns:xlink="http://www.w3.org/1999/xlink">
	<desc>
			Created with Pixso.
	</desc>
	<defs>
		<clipPath id="clip4_88">
			<rect id="pass" width="24.000000" height="24.000000" fill="white" fill-opacity="0"/>
		</clipPath>
	</defs>
	<g clip-path="url(#clip4_88)">
		<path id="Union" d="M19.2 4.49997C17.55 2.84998 15.3 1.64996 12.9 1.49997C10.5 1.34998 8.10001 1.94998 6.14999 3.29999C4.04999 4.64996 2.69998 6.59998 1.94998 8.99997C1.19998 11.25 1.35001 13.8 2.25 16.05C3.14999 18.3 4.79999 20.1 6.89999 21.3C9 22.5 11.4 22.8 13.8 22.35C16.2 21.9 18.3 20.55 19.8 18.75C21.3 16.8 22.2 14.55 22.2 12.15C22.2 9.14996 21.15 6.59998 19.2 4.49997ZM18.75 17.7C17.4 19.35 15.6 20.4 13.65 20.85C11.7 21.3 9.60001 21 7.79999 19.95Q6.67499 19.2937 5.78436 18.4031Q4.53751 17.1562 3.75 15.45C2.85001 13.5 2.85001 11.4 3.44998 9.44998C4.04999 7.34998 5.25 5.69998 6.89999 4.49997C8.54999 3.29999 10.65 2.84998 12.6 2.99997C14.7 3.14996 16.5 4.04999 18 5.54999C19.65 7.19998 20.55 9.59998 20.55 12C20.7 14.1 19.95 16.05 18.75 17.7ZM10.4698 16.3048L9.40485 16.3048L6 12.8999L7.065 11.8349L9.94482 14.7148L16.2447 8.39993L17.3097 9.46494L10.4698 16.3048Z" fill="#FFFFFF" fill-opacity="1.000000" fill-rule="evenodd"/>
	</g>
</svg>
