<svg width="24.000000" height="24.000000" viewBox="0 0 24 24" fill="none" xmlns="http://www.w3.org/2000/svg" xmlns:xlink="http://www.w3.org/1999/xlink">
	<desc>
			Created with Pixso.
	</desc>
	<defs>
		<clipPath id="clip4_92">
			<rect id="Нажмите" width="24.000000" height="24.000000" fill="white" fill-opacity="0"/>
		</clipPath>
	</defs>
	<g clip-path="url(#clip4_92)">
		<path id="path" d="M8.22998 12.98L8.25 13C8.25 13.42 7.91998 13.75 7.5 13.75C7.08002 13.75 6.75 13.42 6.75 13L6.77002 12.98L8.22998 12.98ZM11.23 12.98L11.25 13C11.25 13.42 10.92 13.75 10.5 13.75C10.08 13.75 9.75 13.42 9.75 13L9.77002 12.98L11.23 12.98Z" fill="#000000" fill-opacity="0" fill-rule="nonzero"/>
		<path id="path" d="M7.5 13L7.5 7.5C7.5 6.67154 8.17157 6 9 6C9.82843 6 10.5 6.67154 10.5 7.5L10.5 13" stroke="#FFFFFF" stroke-opacity="1.000000" stroke-width="1.500000" stroke-linejoin="round" stroke-linecap="round"/>
		<path id="path" d="M18.77 12.52L18.75 12.5C18.75 12.08 19.08 11.75 19.5 11.75C19.92 11.75 20.25 12.08 20.25 12.5L20.23 12.52L18.77 12.52ZM6.77002 12.52L6.75 12.5C6.75 12.08 7.08002 11.75 7.5 11.75C7.91998 11.75 8.25 12.08 8.25 12.5L8.22998 12.52L6.77002 12.52Z" fill="#000000" fill-opacity="0" fill-rule="nonzero"/>
		<path id="path" d="M19.5 12.5L19.5 15.75C19.5 18.9257 16.9257 21.5 13.75 21.5L13.25 21.5C10.0743 21.5 7.5 18.9257 7.5 15.75L7.5 12.5" stroke="#FFFFFF" stroke-opacity="1.000000" stroke-width="1.500000" stroke-linejoin="round" stroke-linecap="round"/>
		<path id="path" d="M11.23 14.48L11.25 14.5C11.25 14.92 10.92 15.25 10.5 15.25C10.08 15.25 9.75 14.92 9.75 14.5L9.77002 14.48L11.23 14.48ZM14.23 14.48L14.25 14.5C14.25 14.92 13.92 15.25 13.5 15.25C13.08 15.25 12.75 14.92 12.75 14.5L12.77 14.48L14.23 14.48Z" fill="#000000" fill-opacity="0" fill-rule="nonzero"/>
		<path id="path" d="M10.5 14.5L10.5 13.5529L10.5 12C10.5 11.1715 11.1716 10.5 12 10.5C12.8284 10.5 13.5 11.1715 13.5 12L13.5 13.5909L13.5 14.5" stroke="#FFFFFF" stroke-opacity="1.000000" stroke-width="1.500000" stroke-linejoin="round" stroke-linecap="round"/>
		<path id="path" d="M14.23 14.48L14.25 14.5C14.25 14.92 13.92 15.25 13.5 15.25C13.08 15.25 12.75 14.92 12.75 14.5L12.77 14.48L14.23 14.48ZM17.23 14.48L17.25 14.5C17.25 14.92 16.92 15.25 16.5 15.25C16.08 15.25 15.75 14.92 15.75 14.5L15.77 14.48L17.23 14.48Z" fill="#000000" fill-opacity="0" fill-rule="nonzero"/>
		<path id="path" d="M13.5 14.5L13.5 13.5529L13.5 12C13.5 11.1715 14.1716 10.5 15 10.5C15.8284 10.5 16.5 11.1715 16.5 12L16.5 13.5909L16.5 14.5" stroke="#FFFFFF" stroke-opacity="1.000000" stroke-width="1.500000" stroke-linejoin="round" stroke-linecap="round"/>
		<path id="path" d="M17.23 14.48L17.25 14.5C17.25 14.92 16.92 15.25 16.5 15.25C16.08 15.25 15.75 14.92 15.75 14.5L15.77 14.48L17.23 14.48ZM20.23 14.48L20.25 14.5C20.25 14.92 19.92 15.25 19.5 15.25C19.08 15.25 18.75 14.92 18.75 14.5L18.77 14.48L20.23 14.48Z" fill="#000000" fill-opacity="0" fill-rule="nonzero"/>
		<path id="path" d="M16.5 14.5L16.5 13.5529L16.5 12C16.5 11.1715 17.1716 10.5 18 10.5C18.8284 10.5 19.5 11.1715 19.5 12L19.5 13.5909L19.5 14.5" stroke="#FFFFFF" stroke-opacity="1.000000" stroke-width="1.500000" stroke-linejoin="round" stroke-linecap="round"/>
		<path id="path" d="M14.73 7.48001L14.75 7.5C14.75 7.92001 14.42 8.25 14 8.25C13.58 8.25 13.25 7.92001 13.25 7.5L13.27 7.48001L14.73 7.48001ZM4.72998 7.48001L4.75 7.5C4.75 7.92001 4.41998 8.25 4 8.25C3.58002 8.25 3.25 7.92001 3.25 7.5L3.27002 7.48001L4.72998 7.48001Z" fill="#000000" fill-opacity="0" fill-rule="nonzero"/>
		<path id="path" d="M14 7.5C14 6.97446 13.9189 6.46786 13.7686 5.99194C13.6004 5.45975 13.3456 4.96603 13.0208 4.52734C12.1099 3.29736 10.6481 2.5 9 2.5C7.35193 2.5 5.89008 3.29736 4.97925 4.52734C4.65436 4.96603 4.3996 5.45975 4.23145 5.99194C4.08105 6.46786 4 6.97446 4 7.5" stroke="#FFFFFF" stroke-opacity="1.000000" stroke-width="1.500000" stroke-linecap="round"/>
	</g>
</svg>
