<svg width="30.000000" height="30.000002" viewBox="0 0 30 30" fill="none" xmlns="http://www.w3.org/2000/svg" xmlns:xlink="http://www.w3.org/1999/xlink">

		<defs>
			<clipPath id="clip4_26">
				<rect id="instagram" rx="9.000000" width="18.000000" height="18.000000" transform="translate(6.000000 6.000002)" fill="white" fill-opacity="0"/>
			</clipPath>
		</defs>
		<rect id="Прямоугольник 1" y="0.000002" rx="15.000000" width="30.000000" height="30.000000" fill="#FF009E" fill-opacity="1.000000"/>
		<g clip-path="url(#clip4_26)">
			<path id="path" d="M11.25 8.25C9.59314 8.25 8.25 9.59315 8.25 11.25L8.25 18.75C8.25 20.4069 9.59314 21.75 11.25 21.75L18.75 21.75C20.4069 21.75 21.75 20.4069 21.75 18.75L21.75 11.25C21.75 9.59315 20.4069 8.25 18.75 8.25L11.25 8.25Z" stroke="#FFFFFF" stroke-opacity="1.000000" stroke-width="1.500000" stroke-linejoin="round"/>
			<path id="path" d="M18 15C18 13.3431 16.6569 12 15 12C13.3431 12 12 13.3431 12 15C12 16.6569 13.3431 18 15 18C16.6569 18 18 16.6569 18 15Z" stroke="#FFFFFF" stroke-opacity="1.000000" stroke-width="1.500000" stroke-linejoin="round"/>
			<path id="path" d="M19.125 11.625C19.5392 11.625 19.875 11.2892 19.875 10.875C19.875 10.4608 19.5392 10.125 19.125 10.125C18.7108 10.125 18.375 10.4608 18.375 10.875C18.375 11.2892 18.7108 11.625 19.125 11.625Z" fill="#FFFFFF" fill-opacity="1.000000" fill-rule="nonzero"/>
		</g>
</svg>
