<svg width="196.000000" height="62.000000" viewBox="0 0 196 62" fill="none" xmlns="http://www.w3.org/2000/svg" xmlns:xlink="http://www.w3.org/1999/xlink">
	<desc>
			Created with Pixso.
	</desc>
	<defs>
		<clipPath id="clip4_126">
			<rect id="logo webax1" width="196.000000" height="62.000000" fill="white" fill-opacity="0"/>
		</clipPath>
	</defs>
	<g clip-path="url(#clip4_126)">
		<path id="path" d="M30.8309 52.5485C27.1765 54.5004 23.5221 56.401 19.8162 58.353C18.9927 58.8153 17.9633 58.6612 17.2942 57.942C16.6251 57.2743 16.5221 56.2469 16.9854 55.425L21.103 48.285L6.12506 40.4259C5.40448 40.0663 4.99271 39.3472 4.99271 38.5253L4.99271 14.1773C4.99271 13.3555 5.40448 12.6877 6.12506 12.3281L29.0809 0.25689C29.6986 -0.102679 30.4192 -0.102679 31.0368 0.25689L53.9412 12.2768C54.6618 12.6363 55.0736 13.3555 55.0736 14.126L55.0736 38.5253C55.0736 39.3472 54.6618 40.0149 53.9412 40.3745L31.0368 52.3944C30.9854 52.4971 30.8824 52.4971 30.8309 52.5485ZM34.7942 9.40022L34.7942 10.5817L45.603 16.2834C46.3236 16.643 46.7354 17.3621 46.7354 18.1326C46.7354 18.9545 46.3236 19.6222 45.603 19.9818L34.7942 25.6836L34.7942 26.865L48.6912 19.5709L48.6912 16.6943L34.7942 9.40022ZM25.2721 26.9164L25.2721 25.6836L14.4633 20.0332C13.7427 19.6736 13.3309 18.9545 13.3309 18.184C13.3309 17.3621 13.7427 16.6943 14.4633 16.3348L25.2721 10.633L25.2721 9.45158L11.3751 16.7457L11.3751 19.6222L25.2721 26.9164Z" fill="#41287B" fill-opacity="1.000000" fill-rule="evenodd"/>
		<path id="polygon" d="M50.8529 15.4102L40.4559 9.96525L32.6838 5.90726L32.6838 11.8658L44.625 18.1326L32.6838 24.3994L32.6838 30.4093L40.4559 26.3L50.8529 20.8551L50.8529 15.4102Z" fill="#FFFFFF" fill-opacity="1.000000" fill-rule="evenodd"/>
		<path id="polygon" d="M27.4339 11.8658L27.4339 5.90726L19.6618 9.96525L9.26477 15.4102L9.26477 20.8551L19.6618 26.3L27.4339 30.4093L27.4339 24.3994L15.4412 18.1326L27.4339 11.8658Z" fill="#74B5C3" fill-opacity="1.000000" fill-rule="evenodd"/>
		<path id="path" d="M77.9779 30.512L72.4705 30.512L70.8235 23.0124C70.7205 22.7042 70.6176 22.0878 70.4632 21.1632C70.3087 20.2386 70.1543 19.4681 70.1029 18.8003C70.0514 19.314 69.9485 19.9304 69.794 20.7009C69.6396 21.4714 69.5367 22.1392 69.3823 22.8069C69.2279 23.4234 68.6617 25.9917 67.6837 30.512L62.1764 30.512L57.9043 13.3041L62.3823 13.3041L64.2352 21.9337C64.647 23.8343 64.9558 25.3753 65.1102 26.5054C65.2131 25.6835 65.419 24.6048 65.6764 23.2693C65.9337 21.8823 66.1911 20.7523 66.397 19.879L67.9411 13.3554L72.2646 13.3554L73.7573 19.879C74.0146 20.9064 74.272 22.1392 74.5293 23.4747C74.7867 24.8616 74.9411 25.8376 75.044 26.5567C75.147 25.6835 75.4043 24.1939 75.8676 22.0364L77.772 13.4068L82.2499 13.4068L77.9779 30.512Z" fill="#41287B" fill-opacity="1.000000" fill-rule="nonzero"/>
		<path id="path" d="M90.897 30.7175C88.6837 30.7175 86.9337 30.1524 85.6984 28.971C84.4631 27.7895 83.8455 26.0944 83.8455 23.937C83.8455 21.6769 84.4117 19.9818 85.544 18.749C86.6764 17.5675 88.3234 16.9511 90.4337 16.9511C92.4411 16.9511 93.9852 17.4648 95.1176 18.5435C96.1984 19.5708 96.7646 21.1118 96.7646 23.0638L96.7646 25.1185L88.5293 25.1185C88.5808 25.889 88.8381 26.454 89.3528 26.8649C89.8676 27.2759 90.5881 27.4813 91.4631 27.4813C92.2867 27.4813 93.0073 27.43 93.6764 27.2759C94.3455 27.1218 95.1176 26.8649 95.8896 26.5054L95.8896 29.7929C95.169 30.1524 94.397 30.4093 93.6764 30.5634C92.8528 30.6661 91.9778 30.7175 90.897 30.7175ZM90.6396 20.0331C90.0734 20.0331 89.6617 20.1872 89.3014 20.5468C88.9411 20.9064 88.7352 21.42 88.6837 22.1392L92.647 22.1392C92.647 21.4714 92.4411 20.9577 92.0808 20.5982C91.669 20.2386 91.2058 20.0331 90.6396 20.0331Z" fill="#41287B" fill-opacity="1.000000" fill-rule="nonzero"/>
		<path id="path" d="M107.779 16.9511C109.221 16.9511 110.404 17.5675 111.228 18.749C112.051 19.9304 112.515 21.6255 112.515 23.7829C112.515 25.9403 112.103 27.6355 111.228 28.8683C110.353 30.1011 109.169 30.7175 107.625 30.7175C107.11 30.7175 106.698 30.6661 106.287 30.5634C105.875 30.4606 105.566 30.3065 105.257 30.1011C104.948 29.8956 104.588 29.5874 104.228 29.1765L103.971 29.1765L103.25 30.4606L99.647 30.4606L99.647 12.174L104.279 12.174L104.279 16.3347C104.279 16.8484 104.228 17.6703 104.125 18.9031L104.279 18.9031C104.743 18.2353 105.257 17.7216 105.824 17.4134C106.39 17.1052 107.059 16.9511 107.779 16.9511ZM106.081 20.5468C105.412 20.5468 104.949 20.7523 104.691 21.2146C104.382 21.6769 104.228 22.3447 104.228 23.3206L104.228 23.9884C104.228 25.0671 104.382 25.8376 104.691 26.3513C105 26.8136 105.463 27.0704 106.132 27.0704C106.699 27.0704 107.11 26.8136 107.368 26.2485C107.676 25.6835 107.779 24.8616 107.779 23.7829C107.831 21.6255 107.265 20.5468 106.081 20.5468Z" fill="#41287B" fill-opacity="1.000000" fill-rule="nonzero"/>
		<path id="path" d="M124.147 30.512L123.272 28.7655L123.169 28.7655C122.552 29.536 121.934 30.0497 121.265 30.3579C120.596 30.6147 119.772 30.7688 118.743 30.7688C117.508 30.7688 116.478 30.4093 115.757 29.6388C115.037 28.8683 114.677 27.8409 114.677 26.454C114.677 25.0157 115.191 23.9884 116.169 23.2692C117.147 22.5501 118.588 22.1905 120.493 22.0878L122.706 22.0364L122.706 21.831C122.706 20.7523 122.14 20.1872 121.059 20.1872C120.081 20.1872 118.846 20.4954 117.353 21.1632L116.015 18.1325C117.559 17.3107 119.515 16.9511 121.882 16.9511C123.581 16.9511 124.919 17.362 125.846 18.2353C126.772 19.0572 127.235 20.29 127.235 21.7796L127.235 30.512L124.147 30.512ZM120.75 27.4813C121.316 27.4813 121.78 27.3272 122.191 26.9677C122.603 26.6081 122.809 26.1458 122.809 25.5808L122.809 24.5534L121.728 24.6048C120.235 24.6562 119.463 25.2212 119.463 26.2999C119.412 27.0704 119.875 27.4813 120.75 27.4813Z" fill="#41287B" fill-opacity="1.000000" fill-rule="nonzero"/>
		<path id="path" d="M133.566 23.6802L129.5 17.1566L134.75 17.1566L136.757 20.9064L138.816 17.1566L144.066 17.1566L139.897 23.6802L144.22 30.4606L138.97 30.4606L136.706 26.4026L134.492 30.4606L129.242 30.4606L133.566 23.6802Z" fill="#41287B" fill-opacity="1.000000" fill-rule="nonzero"/>
		<path id="path" d="M158.992 18.749C158.992 20.6495 158.426 22.1392 157.294 23.2179C156.162 24.2452 154.566 24.8103 152.456 24.8103L151.169 24.8103L151.169 30.512L146.537 30.512L146.537 13.3041L152.507 13.3041C154.669 13.3041 156.316 13.7664 157.397 14.7423C158.478 15.6669 158.992 17.0025 158.992 18.749ZM151.169 21.0091L151.992 21.0091C152.713 21.0091 153.228 20.8036 153.64 20.4441C154.051 20.0331 154.257 19.5195 154.257 18.8003C154.257 17.6189 153.588 17.0538 152.301 17.0538L151.117 17.0538L151.169 21.0091Z" fill="#74B5C3" fill-opacity="1.000000" fill-rule="nonzero"/>
		<path id="path" d="M166.661 24.2452L166.661 30.512L162.029 30.512L162.029 13.3041L167.691 13.3041C172.375 13.3041 174.691 14.9992 174.691 18.3894C174.691 20.3927 173.713 21.9337 171.757 23.0124L176.801 30.512L171.5 30.512L167.845 24.2452L166.661 24.2452ZM166.661 20.7523L167.536 20.7523C169.184 20.7523 169.956 20.0331 169.956 18.5948C169.956 17.4134 169.184 16.797 167.588 16.797L166.661 16.797L166.661 20.7523Z" fill="#74B5C3" fill-opacity="1.000000" fill-rule="nonzero"/>
		<path id="path" d="M194.764 21.8824C194.764 24.7589 194.044 26.9677 192.654 28.4573C191.213 29.947 189.154 30.7175 186.426 30.7175C183.698 30.7175 181.639 29.947 180.198 28.4573C178.757 26.9677 178.036 24.7589 178.036 21.831C178.036 18.9544 178.757 16.797 180.198 15.256C181.639 13.7664 183.698 12.9959 186.426 12.9959C189.154 12.9959 191.264 13.7664 192.654 15.256C194.044 16.7457 194.764 18.9544 194.764 21.8824ZM182.926 21.8824C182.926 25.2212 184.11 26.865 186.426 26.865C187.61 26.865 188.485 26.454 189.051 25.6322C189.617 24.8103 189.926 23.5775 189.926 21.8824C189.926 20.1873 189.617 18.9031 189.051 18.0812C188.485 17.2593 187.61 16.8484 186.478 16.8484C184.059 16.8484 182.926 18.4921 182.926 21.8824Z" fill="#74B5C3" fill-opacity="1.000000" fill-rule="nonzero"/>
		<path id="path" d="M92.0807 41.4531L91.7204 39.8608L91.2572 37.8574L91.2057 37.8574L90.3822 41.4531L89.044 41.4531L87.7572 36.8815L88.9925 36.8815L89.5072 38.8848C89.6101 39.2444 89.6616 39.758 89.7646 40.3744C89.7646 40.169 89.816 39.8608 89.919 39.3985L89.9704 39.0389L90.5366 36.8301L91.9263 36.8301L92.441 39.0389C92.441 39.0903 92.4925 39.193 92.4925 39.2957C92.4925 39.3985 92.544 39.5526 92.544 39.6553C92.544 39.758 92.5955 39.9121 92.5955 40.0662C92.5955 40.2203 92.6469 40.2717 92.6469 40.3744C92.6469 40.169 92.6984 39.9121 92.8013 39.5526C92.8528 39.193 92.9043 38.9875 92.9557 38.8848L93.5219 36.8815L94.7572 36.8815L93.419 41.4531L92.0807 41.4531Z" fill="#41287B" fill-opacity="1.000000" fill-rule="nonzero"/>
		<path id="path" d="M98.2057 41.5558C97.4851 41.5558 96.8675 41.3504 96.4557 40.9394C96.0439 40.5285 95.8381 39.9635 95.8381 39.193C95.8381 38.4225 96.0439 37.8574 96.4043 37.3951C96.7646 36.9328 97.3307 36.7787 97.9998 36.7787C98.6689 36.7787 99.1322 36.9842 99.4925 37.3438C99.8528 37.7033 100.059 38.217 100.059 38.8848L100.059 39.5012L97.1248 39.5012C97.1248 39.8607 97.2278 40.1176 97.4337 40.323C97.6396 40.5285 97.8969 40.6312 98.2572 40.6312C98.5146 40.6312 98.7719 40.5799 99.0293 40.5285C99.2866 40.4771 99.544 40.3744 99.8013 40.2717L99.8013 41.2476C99.5954 41.3504 99.3381 41.4531 99.0807 41.5045C98.8234 41.5045 98.5145 41.5558 98.2057 41.5558ZM97.9998 37.7033C97.7425 37.7033 97.5366 37.8061 97.3822 37.9602C97.2278 38.1143 97.1248 38.3711 97.1248 38.6793L98.8748 38.6793C98.8748 38.3711 98.7719 38.1143 98.6175 37.9602C98.4631 37.8061 98.2572 37.7033 97.9998 37.7033Z" fill="#41287B" fill-opacity="1.000000" fill-rule="nonzero"/>
		<path id="path" d="M104.228 36.8301C104.794 36.8301 105.206 37.0355 105.515 37.4465C105.824 37.8574 105.978 38.4224 105.978 39.1929C105.978 39.9634 105.824 40.5285 105.515 40.9394C105.206 41.3504 104.794 41.5558 104.228 41.5558C103.713 41.5558 103.25 41.3504 102.941 40.9908L102.838 40.9908L102.632 41.5045L101.655 41.5045L101.655 35.0836L102.89 35.0836L102.89 36.5732C102.89 36.7787 102.89 37.0869 102.838 37.4978L102.89 37.4978C103.199 37.0355 103.662 36.8301 104.228 36.8301ZM103.816 37.806C103.507 37.806 103.302 37.9088 103.147 38.1142C102.993 38.3197 102.941 38.6279 102.941 39.0388L102.941 39.1929C102.941 39.7066 102.993 40.0148 103.147 40.2717C103.302 40.4771 103.507 40.5799 103.816 40.5799C104.074 40.5799 104.28 40.4771 104.434 40.2203C104.588 39.9635 104.64 39.6553 104.64 39.1929C104.64 38.7306 104.588 38.4224 104.434 38.1656C104.28 37.9088 104.074 37.806 103.816 37.806Z" fill="#41287B" fill-opacity="1.000000" fill-rule="nonzero"/>
		<path id="path" d="M112.566 41.5559C112.051 41.5559 111.588 41.3504 111.279 40.9395C110.971 40.5286 110.816 39.9635 110.816 39.193C110.816 38.4225 110.971 37.8575 111.279 37.4465C111.588 37.0356 112 36.8301 112.566 36.8301C113.132 36.8301 113.596 37.0356 113.904 37.4979L113.956 37.4979C113.904 37.1383 113.853 36.8301 113.853 36.5733L113.853 35.135L115.088 35.135L115.088 41.5045L114.11 41.5045L113.853 40.8881L113.801 40.8881C113.544 41.2991 113.132 41.5559 112.566 41.5559ZM112.978 40.5799C113.287 40.5799 113.544 40.4772 113.698 40.3231C113.853 40.169 113.904 39.8094 113.956 39.3985L113.956 39.2444C113.956 38.7307 113.904 38.4225 113.75 38.1657C113.596 37.9602 113.338 37.8575 113.029 37.8575C112.772 37.8575 112.515 37.9602 112.36 38.217C112.206 38.4739 112.154 38.7821 112.154 39.2444C112.154 39.7067 112.257 40.0149 112.412 40.2717C112.463 40.4258 112.669 40.5799 112.978 40.5799Z" fill="#41287B" fill-opacity="1.000000" fill-rule="nonzero"/>
		<path id="path" d="M119.103 41.5558C118.382 41.5558 117.765 41.3504 117.353 40.9394C116.941 40.5285 116.735 39.9635 116.735 39.193C116.735 38.4225 116.941 37.8574 117.302 37.3951C117.662 36.9328 118.228 36.7787 118.897 36.7787C119.566 36.7787 120.029 36.9842 120.39 37.3438C120.75 37.7033 120.956 38.217 120.956 38.8848L120.956 39.5012L118.022 39.5012C118.022 39.8607 118.125 40.1176 118.331 40.323C118.537 40.5285 118.794 40.6312 119.154 40.6312C119.412 40.6312 119.669 40.5799 119.927 40.5285C120.184 40.4771 120.441 40.3744 120.699 40.2717L120.699 41.2476C120.493 41.3504 120.235 41.4531 119.978 41.5045C119.772 41.5045 119.463 41.5558 119.103 41.5558ZM118.897 37.7033C118.64 37.7033 118.434 37.8061 118.279 37.9602C118.125 38.1143 118.022 38.3711 118.022 38.6793L119.772 38.6793C119.772 38.3711 119.669 38.1143 119.515 37.9602C119.412 37.8061 119.206 37.7033 118.897 37.7033Z" fill="#41287B" fill-opacity="1.000000" fill-rule="nonzero"/>
		<path id="path" d="M123.684 41.4531L121.934 36.8815L123.221 36.8815L124.096 39.5012C124.199 39.8094 124.25 40.1176 124.302 40.4258C124.302 40.169 124.353 39.8608 124.507 39.5012L125.382 36.8815L126.669 36.8815L124.919 41.4531L123.684 41.4531Z" fill="#41287B" fill-opacity="1.000000" fill-rule="nonzero"/>
		<path id="path" d="M130.066 41.5558C129.345 41.5558 128.728 41.3504 128.316 40.9394C127.904 40.5285 127.698 39.9635 127.698 39.193C127.698 38.4225 127.904 37.8574 128.265 37.3951C128.625 36.9328 129.191 36.7787 129.86 36.7787C130.529 36.7787 130.993 36.9842 131.353 37.3438C131.713 37.7033 131.919 38.217 131.919 38.8848L131.919 39.5012L128.985 39.5012C128.985 39.8607 129.088 40.1176 129.294 40.323C129.5 40.5285 129.757 40.6312 130.118 40.6312C130.375 40.6312 130.632 40.5799 130.89 40.5285C131.147 40.4771 131.404 40.3744 131.662 40.2717L131.662 41.2476C131.456 41.3504 131.198 41.4531 130.941 41.5045C130.735 41.5045 130.426 41.5558 130.066 41.5558ZM129.86 37.7033C129.603 37.7033 129.397 37.8061 129.243 37.9602C129.088 38.1143 128.985 38.3711 128.985 38.6793L130.735 38.6793C130.735 38.3711 130.632 38.1143 130.478 37.9602C130.375 37.8061 130.169 37.7033 129.86 37.7033Z" fill="#41287B" fill-opacity="1.000000" fill-rule="nonzero"/>
		<path id="path" d="M134.801 41.4532L133.566 41.4532L133.566 35.0836L134.801 35.0836L134.801 41.4532Z" fill="#41287B" fill-opacity="1.000000" fill-rule="nonzero"/>
		<path id="path" d="M140.875 39.193C140.875 39.9121 140.669 40.5285 140.309 40.9394C139.897 41.3504 139.382 41.5558 138.662 41.5558C138.198 41.5558 137.838 41.4531 137.478 41.2476C137.118 41.0422 136.86 40.7853 136.706 40.4258C136.551 40.0662 136.448 39.6553 136.448 39.1416C136.448 38.3711 136.654 37.8061 137.015 37.3951C137.426 36.9842 137.941 36.7787 138.662 36.7787C139.125 36.7787 139.485 36.8815 139.845 37.0869C140.206 37.2924 140.463 37.5492 140.618 37.9088C140.823 38.2684 140.875 38.6793 140.875 39.193ZM137.735 39.193C137.735 39.6553 137.787 39.9635 137.941 40.2203C138.095 40.4771 138.353 40.5799 138.662 40.5799C138.97 40.5799 139.228 40.4771 139.382 40.2203C139.537 40.0148 139.588 39.6553 139.588 39.193C139.588 38.7307 139.537 38.4225 139.382 38.1656C139.228 37.9602 138.97 37.8061 138.662 37.8061C138.353 37.8061 138.095 37.9088 137.941 38.1656C137.787 38.3711 137.735 38.7307 137.735 39.193Z" fill="#41287B" fill-opacity="1.000000" fill-rule="nonzero"/>
		<path id="path" d="M145.044 41.5559C144.529 41.5559 144.066 41.3504 143.757 40.9909L143.706 40.9909C143.757 41.3504 143.757 41.6073 143.757 41.6586L143.757 43.5079L142.522 43.5079L142.522 36.8815L143.551 36.8815L143.706 37.4979L143.757 37.4979C144.066 37.0356 144.478 36.8301 145.044 36.8301C145.559 36.8301 146.022 37.0356 146.331 37.4465C146.639 37.8575 146.794 38.4225 146.794 39.193C146.794 39.6553 146.742 40.1176 146.588 40.4772C146.434 40.8368 146.228 41.0936 145.97 41.2991C145.713 41.4532 145.404 41.5559 145.044 41.5559ZM144.684 37.8061C144.375 37.8061 144.169 37.9088 144.014 38.1143C143.86 38.3198 143.809 38.628 143.809 39.0389L143.809 39.193C143.809 39.7067 143.86 40.0149 144.014 40.2717C144.169 40.4772 144.375 40.5799 144.684 40.5799C145.25 40.5799 145.507 40.1176 145.507 39.193C145.507 38.7307 145.456 38.4225 145.301 38.1657C145.198 37.9088 144.992 37.8061 144.684 37.8061Z" fill="#41287B" fill-opacity="1.000000" fill-rule="nonzero"/>
		<path id="path" d="M150.551 41.5558C149.831 41.5558 149.213 41.3504 148.801 40.9394C148.39 40.5285 148.184 39.9635 148.184 39.193C148.184 38.4225 148.389 37.8574 148.75 37.3951C149.11 36.9842 149.676 36.7787 150.345 36.7787C151.014 36.7787 151.478 36.9842 151.838 37.3438C152.198 37.7033 152.353 38.217 152.353 38.8848L152.353 39.5012L149.419 39.5012C149.419 39.8607 149.522 40.1176 149.728 40.323C149.934 40.5285 150.191 40.6312 150.551 40.6312C150.809 40.6312 151.066 40.5799 151.323 40.5285C151.581 40.4771 151.838 40.3744 152.095 40.2717L152.095 41.2476C151.889 41.3504 151.632 41.4531 151.375 41.5045C151.22 41.5045 150.912 41.5558 150.551 41.5558ZM150.345 37.7033C150.088 37.7033 149.882 37.8061 149.728 37.9602C149.573 38.1143 149.47 38.3711 149.47 38.6793L151.22 38.6793C151.22 38.3711 151.117 38.1143 150.963 37.9602C150.809 37.8061 150.654 37.7033 150.345 37.7033Z" fill="#41287B" fill-opacity="1.000000" fill-rule="nonzero"/>
		<path id="path" d="M156.625 36.8301C156.779 36.8301 156.934 36.8301 157.036 36.8814L156.934 38.0629C156.831 38.0115 156.728 38.0115 156.573 38.0115C156.161 38.0115 155.853 38.1143 155.647 38.3197C155.441 38.5252 155.338 38.8334 155.338 39.193L155.338 41.5045L154.103 41.5045L154.103 36.9328L155.029 36.9328L155.235 37.7033L155.286 37.7033C155.441 37.4465 155.595 37.241 155.853 37.0869C156.059 36.8815 156.316 36.8301 156.625 36.8301Z" fill="#41287B" fill-opacity="1.000000" fill-rule="nonzero"/>
		<path id="path" d="M165.169 40.1176C165.169 40.5799 165.015 40.9395 164.654 41.1963C164.345 41.4531 163.831 41.5559 163.213 41.5559C162.904 41.5559 162.595 41.5559 162.338 41.5045C162.081 41.4531 161.875 41.4018 161.669 41.299L161.669 40.2717C161.926 40.3744 162.184 40.4772 162.441 40.5285C162.75 40.5799 163.007 40.6313 163.213 40.6313C163.676 40.6313 163.882 40.4772 163.882 40.2203C163.882 40.1176 163.831 40.0662 163.779 39.9635C163.728 39.9121 163.625 39.8094 163.47 39.758C163.316 39.7067 163.11 39.6039 162.904 39.5012C162.544 39.3471 162.287 39.193 162.132 39.0903C161.978 38.9875 161.823 38.8334 161.772 38.6793C161.72 38.5252 161.669 38.3198 161.669 38.0629C161.669 37.652 161.823 37.3438 162.132 37.1383C162.441 36.9328 162.904 36.8301 163.47 36.8301C164.037 36.8301 164.551 36.9328 165.066 37.1897L164.706 38.1143C164.5 38.0116 164.243 37.9602 164.088 37.8574C163.882 37.8061 163.676 37.7547 163.47 37.7547C163.11 37.7547 162.904 37.8574 162.904 38.0629C162.904 38.1656 162.956 38.2684 163.059 38.3711C163.162 38.4739 163.419 38.5766 163.831 38.7307C164.191 38.8848 164.448 38.9875 164.603 39.1416C164.757 39.2444 164.912 39.3985 164.963 39.5526C165.118 39.7067 165.169 39.8608 165.169 40.1176Z" fill="#41287B" fill-opacity="1.000000" fill-rule="nonzero"/>
		<path id="path" d="M168.669 40.5799C168.875 40.5799 169.132 40.5285 169.441 40.4258L169.441 41.3504C169.132 41.5045 168.772 41.5559 168.309 41.5559C167.794 41.5559 167.434 41.4531 167.228 41.1963C167.022 40.9395 166.867 40.5799 166.867 40.0662L166.867 37.8574L166.25 37.8574L166.25 37.3438L166.919 36.9328L167.279 35.9569L168.103 35.9569L168.103 36.9328L169.389 36.9328L169.389 37.8574L168.103 37.8574L168.103 40.0662C168.103 40.2203 168.154 40.3744 168.257 40.4772C168.36 40.5799 168.514 40.5799 168.669 40.5799Z" fill="#41287B" fill-opacity="1.000000" fill-rule="nonzero"/>
		<path id="path" d="M174.228 41.4531L174.073 40.8881L174.022 40.8881C173.868 41.0935 173.713 41.2476 173.456 41.4017C173.198 41.5045 172.941 41.5558 172.632 41.5558C172.118 41.5558 171.706 41.4017 171.397 41.1449C171.14 40.8367 170.985 40.4258 170.985 39.9121L170.985 36.9328L172.22 36.9328L172.22 39.5525C172.22 39.8607 172.272 40.1176 172.375 40.2717C172.478 40.4258 172.684 40.5285 172.941 40.5285C173.301 40.5285 173.559 40.4258 173.713 40.1689C173.868 39.9121 173.97 39.5525 173.97 38.9875L173.97 36.8301L175.206 36.8301L175.206 41.4017L174.228 41.4531Z" fill="#41287B" fill-opacity="1.000000" fill-rule="nonzero"/>
		<path id="path" d="M178.603 41.5559C178.088 41.5559 177.625 41.3504 177.316 40.9395C177.007 40.5286 176.853 39.9635 176.853 39.193C176.853 38.4225 177.007 37.8575 177.316 37.4465C177.625 37.0356 178.037 36.8301 178.603 36.8301C179.169 36.8301 179.632 37.0356 179.941 37.4979L179.993 37.4979C179.941 37.1383 179.89 36.8301 179.89 36.5733L179.89 35.135L181.125 35.135L181.125 41.5045L180.147 41.5045L179.89 40.8881L179.838 40.8881C179.581 41.2991 179.169 41.5559 178.603 41.5559ZM179.015 40.5799C179.323 40.5799 179.581 40.4772 179.735 40.3231C179.89 40.169 179.941 39.8094 179.993 39.3985L179.993 39.2444C179.993 38.7307 179.941 38.4225 179.787 38.1657C179.632 37.9602 179.375 37.8575 179.066 37.8575C178.809 37.8575 178.551 37.9602 178.397 38.217C178.243 38.4739 178.14 38.7821 178.14 39.2444C178.14 39.7067 178.243 40.0149 178.397 40.2717C178.5 40.4258 178.757 40.5799 179.015 40.5799Z" fill="#41287B" fill-opacity="1.000000" fill-rule="nonzero"/>
		<path id="path" d="M183.029 35.7001C183.029 35.2891 183.235 35.0836 183.698 35.0836C184.161 35.0836 184.367 35.2891 184.367 35.7001C184.367 35.9055 184.316 36.0596 184.213 36.1624C184.11 36.2651 183.904 36.3165 183.698 36.3165C183.235 36.3165 183.029 36.111 183.029 35.7001ZM184.316 41.4532L183.081 41.4532L183.081 36.8815L184.316 36.8815L184.316 41.4532Z" fill="#41287B" fill-opacity="1.000000" fill-rule="nonzero"/>
		<path id="path" d="M190.389 39.193C190.389 39.9121 190.184 40.5285 189.823 40.9394C189.463 41.3504 188.897 41.5558 188.176 41.5558C187.713 41.5558 187.353 41.4531 186.992 41.2476C186.632 41.0422 186.375 40.7853 186.22 40.4258C186.066 40.0662 185.963 39.6553 185.963 39.1416C185.963 38.3711 186.169 37.8061 186.529 37.3951C186.941 36.9842 187.456 36.7787 188.176 36.7787C188.64 36.7787 189 36.8815 189.36 37.0869C189.72 37.2924 189.978 37.5492 190.132 37.9088C190.338 38.2684 190.389 38.6793 190.389 39.193ZM187.25 39.193C187.25 39.6553 187.301 39.9635 187.456 40.2203C187.61 40.4771 187.867 40.5799 188.176 40.5799C188.485 40.5799 188.742 40.4771 188.897 40.2203C189.051 39.9635 189.103 39.6553 189.103 39.193C189.103 38.7307 189.051 38.4225 188.897 38.1656C188.742 37.9088 188.485 37.8061 188.176 37.8061C187.867 37.8061 187.61 37.9088 187.456 38.1656C187.301 38.3711 187.25 38.7307 187.25 39.193Z" fill="#41287B" fill-opacity="1.000000" fill-rule="nonzero"/>
	</g>
</svg>
