<svg width="30.000000" height="30.000002" viewBox="0 0 30 30" fill="none" xmlns="http://www.w3.org/2000/svg" xmlns:xlink="http://www.w3.org/1999/xlink">
	<desc>
			Created with Pixso.
	</desc>
	<defs>
		<clipPath id="clip4_24">
			<rect id="Telegram" rx="9.000000" width="18.000000" height="18.000000" transform="translate(6.000000 6.000002)" fill="white" fill-opacity="0"/>
		</clipPath>
	</defs>
	<rect id="Прямоугольник 1" y="0.000002" rx="15.000000" width="30.000000" height="30.000000" fill="#2A73CD" fill-opacity="1.000000"/>
	<g clip-path="url(#clip4_24)">
		<path id="path" d="M21.5322 8.74087C21.5322 8.74087 22.9893 8.17275 22.8678 9.55248C22.8274 10.1206 22.4631 12.1091 22.1798 14.2598L21.2085 20.631C21.2085 20.631 21.1276 21.5643 20.399 21.7266C19.6705 21.8889 18.5778 21.1585 18.3754 20.9962C18.2135 20.8745 15.3401 19.0483 14.3282 18.1556C14.0449 17.9121 13.7212 17.4251 14.3687 16.857L18.6183 12.7989C19.1039 12.312 19.5896 11.1757 17.5659 12.5555L11.8999 16.4106C11.8999 16.4106 11.2523 16.8164 10.0382 16.4512L7.40759 15.6396C7.40759 15.6396 6.43616 15.0309 8.09558 14.4221C12.1428 12.5148 17.1208 10.567 21.5322 8.74087Z" fill="#FFFFFF" fill-opacity="1.000000" fill-rule="nonzero"/>
	</g>
</svg>
