<svg width="30.000000" height="30.000002" viewBox="0 0 30 30" fill="none" xmlns="http://www.w3.org/2000/svg" xmlns:xlink="http://www.w3.org/1999/xlink">
	<desc>
			Created with Pixso.
	</desc>
	<defs>
		<clipPath id="clip4_30">
			<rect id="vk-svgrepo-com" rx="9.000000" width="18.000000" height="18.000000" transform="translate(6.000000 6.000002)" fill="white" fill-opacity="0"/>
		</clipPath>
	</defs>
	<rect id="Прямоугольник 1" y="0.000002" rx="15.000000" width="30.000000" height="30.000000" fill="#0D79FF" fill-opacity="1.000000"/>
	<g clip-path="url(#clip4_30)">
		<path id="path" d="M23.5919 10.338C23.3894 10.9748 23.1165 11.529 22.7744 12.0323L22.7887 12.0098C22.4526 12.5698 22.0514 13.2168 21.585 13.9508C21.1849 14.5303 20.9731 14.8303 20.9497 14.8508C20.8462 14.9805 20.7742 15.1395 20.7494 15.3143L20.7487 15.3195C20.7689 15.4785 20.8424 15.6173 20.9497 15.7208L21.2498 16.0553C22.8547 17.7048 23.7574 18.8418 23.958 19.4663C23.9843 19.5353 23.9991 19.6148 23.9991 19.698C23.9991 19.8435 23.9526 19.9778 23.8739 20.088C23.7419 20.2238 23.559 20.3055 23.355 20.3055C23.3324 20.3055 23.3092 20.3048 23.2875 20.3025L23.2904 20.3025L21.3171 20.3025C21.3164 20.3025 21.3149 20.3025 21.3135 20.3025C21.0607 20.3025 20.8282 20.214 20.646 20.067L20.6482 20.0685C20.3827 19.8503 20.1465 19.614 19.9349 19.3575L19.9282 19.3485C19.5826 18.958 19.2762 18.6293 19.0087 18.3623C18.1177 17.5153 17.4602 17.0918 17.0363 17.0918C17.0205 17.0903 17.0024 17.0895 16.9836 17.0895C16.86 17.0895 16.7445 17.1278 16.6492 17.193L16.6515 17.1915C16.5735 17.289 16.5262 17.415 16.5262 17.5508C16.5262 17.5778 16.5277 17.6033 16.5315 17.6295L16.5315 17.6265C16.5112 17.862 16.4991 18.1358 16.4991 18.4125C16.4991 18.5018 16.5007 18.5903 16.5029 18.6788L16.5029 18.666L16.5029 19.5353C16.5105 19.5705 16.5149 19.611 16.5149 19.6523C16.5149 19.8338 16.4325 19.9958 16.3035 20.103C16.0132 20.2358 15.6735 20.3145 15.3157 20.3145C15.2393 20.3145 15.1642 20.3108 15.09 20.304L15.0997 20.3048C13.9192 20.2823 12.8242 19.9365 11.8934 19.3538L11.9197 19.3688C10.7865 18.6803 9.84741 17.784 9.13196 16.725L9.11169 16.6935C8.43225 15.792 7.79846 14.7735 7.25842 13.6995L7.20593 13.584C6.89014 12.9825 6.56323 12.243 6.28125 11.4825L6.23621 11.3438C6.12146 11.0018 6.03821 10.6043 6.00366 10.1925L6.0022 10.1738C6.0022 9.79476 6.22522 9.60526 6.67114 9.60526L8.64368 9.60526C8.66174 9.60375 8.68274 9.60301 8.70447 9.60301C8.8905 9.60301 9.06226 9.66676 9.198 9.77401C9.3479 9.93826 9.4574 10.1385 9.51221 10.3635L9.5144 10.3725C9.87744 11.3978 10.2622 12.2588 10.7047 13.0838L10.6544 12.981C11.016 13.7085 11.4156 14.3348 11.8717 14.913L11.8545 14.8898C12.2544 15.3808 12.5664 15.6263 12.7904 15.6263C12.7972 15.627 12.8054 15.627 12.8145 15.627C12.9254 15.627 13.0222 15.567 13.0747 15.477C13.1302 15.3345 13.1632 15.1673 13.1632 14.9948C13.1632 14.958 13.1617 14.9213 13.1587 14.8853L13.1587 14.8898L13.1587 11.9805C13.1429 11.6378 13.059 11.3175 12.9187 11.0303L12.9247 11.0445C12.8317 10.8465 12.72 10.6755 12.5872 10.5233L12.5895 10.5263C12.4664 10.4033 12.3824 10.242 12.3562 10.062L12.3555 10.0575C12.3555 9.93001 12.4139 9.81526 12.5055 9.74026C12.5962 9.65701 12.7185 9.60601 12.8512 9.60601L12.8572 9.60601L15.9667 9.60601C15.9832 9.60376 16.002 9.60301 16.0215 9.60301C16.1677 9.60301 16.299 9.66901 16.386 9.77251C16.4633 9.91351 16.5096 10.083 16.5096 10.2615C16.5096 10.29 16.5082 10.3178 16.506 10.3455L16.506 10.3418L16.506 14.2215C16.5044 14.2395 16.5037 14.2605 16.5037 14.2815C16.5037 14.4195 16.542 14.5493 16.6079 14.6595L16.6064 14.6565C16.6613 14.7375 16.7527 14.79 16.8562 14.79C16.9882 14.781 17.109 14.7375 17.2102 14.6685L17.208 14.67C17.412 14.5298 17.5874 14.37 17.7397 14.1893L17.7427 14.1855C18.198 13.671 18.6179 13.1025 18.9839 12.498L19.0132 12.4455C19.2712 12.018 19.5502 11.4915 19.803 10.9508L19.8495 10.8405L20.184 10.1715C20.3002 9.83701 20.6122 9.60151 20.979 9.60151C20.9932 9.60151 21.0074 9.60151 21.0217 9.60226L21.0194 9.60226L22.9927 9.60226C23.5256 9.60226 23.725 9.84751 23.5919 10.338Z" fill="#FFFFFF" fill-opacity="1.000000" fill-rule="nonzero"/>
	</g>
</svg>
